M48
; DRILL file {KiCad (5.1.5-0-10_14)} date Saturday, 26 June 2021 at 15:48:46
; FORMAT={-:-/ absolute / metric / decimal}
; #@! TF.CreationDate,2021-06-26T15:48:46+02:00
; #@! TF.GenerationSoftware,Kicad,Pcbnew,(5.1.5-0-10_14)
FMAT,2
METRIC
T1C0.300
T2C0.350
T3C0.400
T4C0.440
T5C0.750
T6C0.800
T7C1.000
T8C1.100
T9C4.000
T10C3.500
%
G90
G05
T1
X111.1Y-118.2
X111.4Y-95.9
X111.4Y-96.7
X111.4Y-97.6
X111.4Y-98.6
X111.4Y-99.6
X111.4Y-100.6
X112.0Y-129.5
X112.1Y-125.1
X112.2Y-121.6
X112.3Y-102.6
X112.3Y-103.4
X112.3Y-104.2
X112.3Y-105.0
X112.3Y-106.7
X112.5Y-95.9
X112.5Y-96.7
X112.5Y-97.6
X112.5Y-98.6
X112.5Y-99.6
X112.5Y-100.6
X112.5Y-117.65
X112.5Y-119.8
X112.5Y-132.5
X112.5Y-135.0
X112.5Y-164.0
X113.3Y-102.6
X113.3Y-103.4
X113.3Y-104.2
X113.3Y-105.0
X113.3Y-106.7
X113.335Y-101.765
X113.7Y-95.9
X113.7Y-96.7
X113.7Y-97.6
X113.7Y-98.6
X113.7Y-99.6
X113.835Y-152.765
X113.85Y-119.55
X113.9Y-117.6
X113.9Y-124.2
X113.932Y-158.159
X113.952Y-155.377
X114.2Y-103.4
X114.2Y-104.2
X114.2Y-105.0
X114.2Y-106.7
X114.7Y-101.95
X114.8Y-112.7
X114.8Y-147.9
X114.8Y-150.2
X114.9Y-95.9
X114.9Y-96.7
X114.9Y-97.6
X114.9Y-98.6
X114.9Y-99.6
X114.9Y-162.4
X115.1Y-106.7
X115.2Y-143.6
X115.3Y-103.4
X115.3Y-104.2
X115.3Y-105.0
X115.4Y-146.1
X115.6Y-163.7
X115.7Y-135.5
X115.7Y-152.4
X115.9Y-106.7
X116.1Y-95.9
X116.1Y-96.7
X116.1Y-97.6
X116.1Y-98.6
X116.1Y-99.6
X116.1Y-100.6
X116.1Y-160.1
X116.3Y-102.6
X116.3Y-103.4
X116.3Y-104.2
X116.3Y-105.0
X116.3Y-113.1
X116.4Y-155.9
X116.7Y-141.9
X116.7Y-147.9
X116.7Y-150.2
X116.75Y-119.8
X116.8Y-115.2
X116.8Y-116.1
X116.9Y-117.55
X116.9Y-121.95
X116.9Y-146.1
X117.1Y-109.9
X117.3Y-95.9
X117.3Y-96.7
X117.3Y-97.6
X117.3Y-98.6
X117.3Y-99.6
X117.3Y-100.6
X117.3Y-102.6
X117.3Y-103.4
X117.3Y-104.2
X117.3Y-105.0
X117.4Y-162.3
X117.5Y-165.35
X117.7Y-156.9
X117.7Y-159.9
X117.817Y-123.633
X117.9Y-113.5
X117.9Y-141.45
X118.1Y-154.9
X118.2Y-102.6
X118.2Y-103.4
X118.2Y-104.2
X118.2Y-105.0
X118.25Y-138.1
X118.3Y-95.9
X118.3Y-96.7
X118.3Y-97.6
X118.3Y-98.6
X118.3Y-99.6
X118.3Y-100.6
X118.3Y-109.9
X118.35Y-134.6
X118.5Y-146.2
X118.6Y-144.5
X118.7Y-149.1
X118.7Y-152.4
X118.7Y-163.5
X118.8Y-124.6
X118.9Y-113.5
X119.0Y-119.4
X119.1Y-117.7
X119.1Y-138.85
X119.271Y-125.729
X119.45Y-154.9
X119.5Y-165.4
X119.85Y-143.5
X120.0Y-113.5
X120.0Y-139.8
X120.0Y-160.6
X120.2Y-109.9
X120.3Y-94.973
X120.3Y-162.7
X120.35Y-135.6
X120.4Y-130.0
X120.4Y-152.7
X120.45Y-147.65
X120.5Y-157.0
X120.8Y-159.0
X121.0Y-117.7
X121.0Y-119.3
X121.05Y-128.535
X121.1Y-113.5
X121.5Y-140.666
X121.6Y-145.25
X121.6Y-161.5
X121.7Y-89.15
X121.7Y-90.05
X121.7Y-90.95
X121.7Y-130.6
X121.7Y-165.45
X121.8Y-155.0
X122.0Y-138.65
X122.0Y-149.8
X122.0Y-159.9
X122.1Y-163.3
X122.2Y-113.5
X122.2Y-129.6
X122.4Y-157.0
X122.6Y-143.15
X122.7Y-89.15
X122.7Y-90.05
X122.7Y-90.95
X122.7Y-141.0
X122.756Y-132.456
X122.9Y-117.7
X122.9Y-119.3
X123.2Y-113.5
X123.4Y-159.0
X123.7Y-89.15
X123.7Y-90.05
X123.7Y-90.95
X123.7Y-144.0
X123.8Y-138.85
X123.975Y-154.1
X123.984Y-135.384
X124.0Y-127.1
X124.0Y-151.8
X124.075Y-156.4
X124.2Y-113.5
X124.33Y-110.8
X124.4Y-115.1
X124.4Y-117.7
X124.4Y-119.3
X124.5Y-163.4
X124.55Y-150.55
X124.6Y-89.15
X124.6Y-90.05
X124.6Y-90.95
X124.9Y-137.5
X125.0Y-131.9
X125.1Y-115.1
X125.175Y-159.7
X125.248Y-139.8
X125.275Y-128.8
X125.3Y-109.5
X125.5Y-89.15
X125.5Y-90.05
X125.5Y-90.95
X125.5Y-120.6
X125.5Y-121.8
X125.582Y-157.174
X125.7Y-113.5
X125.7Y-150.0
X125.8Y-110.2
X125.8Y-147.05
X125.9Y-117.3
X126.1Y-138.6
X126.142Y-155.2
X126.2Y-154.15
X126.2Y-163.4
X126.25Y-129.7
X126.3Y-109.5
X126.475Y-90.05
X126.475Y-90.95
X126.5Y-89.2
X126.6Y-117.3
X126.675Y-142.6
X126.7Y-121.7
X126.7Y-124.0
X126.8Y-110.2
X126.8Y-134.8
X126.836Y-165.3
X126.846Y-133.8
X126.975Y-156.954
X127.0Y-113.5
X127.175Y-128.8
X127.175Y-162.0
X127.3Y-117.3
X127.3Y-109.5
X127.4Y-101.2
X127.4Y-101.9
X127.4Y-102.6
X127.575Y-143.2
X127.8Y-110.2
X127.8Y-122.8
X127.8Y-140.9
X127.915Y-138.385
X128.0Y-155.3
X128.075Y-156.7
X128.1Y-103.2
X128.1Y-104.0
X128.1Y-130.375
X128.146Y-104.754
X128.2Y-113.5
X128.3Y-96.1
X128.3Y-96.8
X128.3Y-109.5
X128.4Y-107.1
X128.4Y-117.95
X128.4Y-127.6
X128.45Y-119.05
X128.5Y-115.1
X128.5Y-115.8
X128.5Y-132.0
X128.7Y-133.2
X128.7Y-134.2
X128.8Y-110.2
X129.1Y-121.4
X129.1Y-122.8
X129.175Y-141.2
X129.2Y-113.5
X129.2Y-153.55
X129.275Y-158.9
X129.275Y-160.3
X129.3Y-109.5
X129.4Y-151.7
X129.475Y-146.8
X129.6Y-138.4
X129.8Y-117.95
X129.875Y-161.0
X130.0Y-163.1
X130.2Y-132.0
X130.4Y-124.1
X130.7Y-139.3
X130.7Y-120.7
X130.7Y-122.2
X130.975Y-158.5
X131.1Y-118.0
X131.5Y-95.8
X131.5Y-96.6
X131.5Y-97.5
X131.5Y-98.5
X131.5Y-99.5
X131.5Y-100.5
X131.542Y-140.8
X131.6Y-102.5
X131.6Y-103.3
X131.6Y-104.1
X131.6Y-104.9
X131.6Y-128.8
X131.6Y-160.5
X131.659Y-142.144
X131.757Y-157.788
X131.767Y-148.133
X131.8Y-115.3
X132.0Y-134.5
X132.049Y-149.051
X132.1Y-129.2
X132.1Y-133.7
X132.1Y-152.0
X132.1Y-153.6
X132.2Y-120.7
X132.2Y-122.2
X132.3Y-151.2
X132.3Y-112.1
X132.5Y-118.0
X132.6Y-95.8
X132.6Y-96.6
X132.6Y-97.5
X132.6Y-98.5
X132.6Y-99.5
X132.6Y-100.5
X132.6Y-102.5
X132.6Y-103.3
X132.6Y-104.1
X132.6Y-104.9
X132.616Y-154.298
X132.716Y-161.75
X132.9Y-112.612
X132.9Y-149.1
X132.95Y-130.7
X133.0Y-132.0
X133.0Y-152.3
X133.1Y-128.8
X133.2Y-106.7
X133.2Y-141.5
X133.442Y-110.2
X133.5Y-118.7
X133.6Y-102.5
X133.6Y-103.3
X133.6Y-104.1
X133.6Y-104.9
X133.6Y-117.85
X133.6Y-134.5
X133.65Y-160.85
X133.7Y-120.7
X133.7Y-122.2
X133.7Y-128.8
X133.8Y-95.8
X133.8Y-96.6
X133.8Y-97.5
X133.8Y-98.5
X133.8Y-99.5
X133.9Y-101.6
X134.0Y-165.1
X134.1Y-106.7
X134.1Y-150.4
X134.4Y-133.7
X134.45Y-143.9
X134.475Y-146.9
X134.5Y-103.3
X134.5Y-104.1
X134.5Y-104.9
X134.6Y-113.5
X134.8Y-155.7
X134.9Y-112.8
X134.975Y-119.6
X135.0Y-95.8
X135.0Y-96.6
X135.0Y-97.5
X135.0Y-98.5
X135.0Y-99.5
X135.1Y-101.9
X135.1Y-106.7
X135.1Y-135.7
X135.2Y-113.5
X135.2Y-120.7
X135.2Y-122.2
X135.2Y-123.7
X135.3Y-151.1
X135.326Y-147.087
X135.433Y-154.396
X135.433Y-155.199
X135.5Y-112.8
X135.5Y-148.874
X135.6Y-103.3
X135.6Y-104.1
X135.6Y-104.9
X135.7Y-130.9
X135.797Y-113.52
X135.9Y-166.8
X136.05Y-153.215
X136.05Y-151.6
X136.1Y-112.8
X136.1Y-106.7
X136.181Y-141.481
X136.2Y-95.8
X136.2Y-96.6
X136.2Y-97.5
X136.2Y-98.5
X136.2Y-99.5
X136.2Y-100.5
X136.4Y-129.0
X136.4Y-144.0
X136.45Y-134.55
X136.475Y-147.1
X136.6Y-102.5
X136.6Y-103.3
X136.6Y-104.1
X136.6Y-104.9
X136.695Y-140.795
X136.7Y-116.2
X136.7Y-120.7
X136.7Y-122.2
X136.7Y-123.7
X136.708Y-154.599
X136.75Y-164.4
X137.074Y-129.0
X137.2Y-131.15
X137.2Y-137.1
X137.2Y-138.0
X137.2Y-139.0
X137.275Y-151.5
X137.3Y-117.0
X137.4Y-95.8
X137.4Y-96.6
X137.4Y-97.5
X137.4Y-98.5
X137.4Y-99.5
X137.4Y-100.5
X137.516Y-135.884
X137.575Y-147.0
X137.6Y-102.5
X137.6Y-103.3
X137.6Y-104.1
X137.6Y-104.9
X137.966Y-130.741
X137.994Y-116.285
X138.4Y-95.8
X138.4Y-96.6
X138.4Y-97.5
X138.4Y-98.5
X138.4Y-99.5
X138.4Y-100.5
X138.5Y-102.5
X138.5Y-103.3
X138.5Y-104.1
X138.5Y-104.9
X138.6Y-120.7
X138.6Y-121.6
X138.6Y-122.5
X138.6Y-123.4
X138.7Y-153.7
X139.019Y-144.219
X139.1Y-158.9
X139.175Y-160.2
X139.2Y-129.0
X139.2Y-135.0
X139.5Y-120.7
X139.5Y-121.6
X139.5Y-122.5
X139.5Y-123.4
X139.851Y-130.699
X139.9Y-129.0
X139.95Y-149.15
X139.975Y-160.2
X140.1Y-141.3
X140.2Y-151.3
X140.2Y-152.3
X140.4Y-94.873
X140.4Y-120.7
X140.4Y-121.6
X140.4Y-122.5
X140.4Y-123.4
X140.4Y-150.5
X140.5Y-109.6
X140.5Y-131.335
X140.6Y-148.5
X140.675Y-160.2
X140.7Y-129.0
X140.768Y-149.636
X140.9Y-145.6
X141.1Y-142.512
X141.1Y-144.1
X141.1Y-136.7
X141.3Y-120.7
X141.3Y-121.6
X141.3Y-122.5
X141.3Y-123.4
X141.4Y-131.9
X141.55Y-112.0
X141.55Y-112.65
X141.7Y-89.3
X141.7Y-90.2
X141.7Y-91.2
X141.9Y-137.7
X142.2Y-120.7
X142.2Y-121.6
X142.2Y-122.5
X142.2Y-123.4
X142.275Y-141.6
X142.3Y-112.1
X142.3Y-131.2
X142.377Y-160.071
X142.395Y-111.471
X142.5Y-139.0
X142.7Y-89.3
X142.7Y-90.2
X142.7Y-91.2
X142.9Y-143.7
X143.1Y-120.7
X143.1Y-121.6
X143.1Y-122.5
X143.1Y-123.4
X143.185Y-149.192
X143.279Y-140.8
X143.3Y-152.8
X143.345Y-148.357
X143.375Y-156.6
X143.375Y-150.592
X143.698Y-154.407
X143.7Y-89.3
X143.7Y-90.2
X143.7Y-91.2
X143.75Y-164.15
X143.8Y-166.8
X143.801Y-153.527
X143.85Y-159.25
X143.9Y-146.3
X143.901Y-145.401
X144.0Y-120.7
X144.0Y-121.6
X144.0Y-122.5
X144.0Y-123.4
X144.375Y-147.4
X144.5Y-144.5
X144.634Y-145.4
X144.7Y-89.3
X144.7Y-90.2
X144.7Y-91.2
X144.719Y-155.819
X144.891Y-154.448
X145.034Y-149.3
X145.1Y-157.3
X145.4Y-129.0
X145.46Y-150.9
X145.5Y-164.2
X145.6Y-89.3
X145.6Y-90.2
X145.6Y-91.2
X145.6Y-120.7
X145.6Y-122.2
X145.6Y-123.7
X145.6Y-166.8
X146.163Y-129.0
X146.2Y-155.5
X146.5Y-89.3
X146.5Y-90.2
X146.5Y-91.2
X147.1Y-120.7
X147.1Y-122.2
X147.1Y-123.7
X147.45Y-154.2
X147.5Y-129.0
X147.9Y-102.0
X147.9Y-103.4
X147.9Y-102.7
X147.995Y-114.426
X148.1Y-129.0
X148.2Y-151.1
X148.3Y-138.0
X148.4Y-155.9
X148.5Y-120.7
X148.5Y-122.2
X148.5Y-123.7
X148.5Y-157.3
X148.525Y-105.125
X148.55Y-152.8
X148.611Y-96.0
X148.611Y-96.6
X148.611Y-97.2
X148.7Y-103.8
X148.7Y-104.49
X148.75Y-159.05
X148.759Y-114.439
X148.8Y-139.8
X148.9Y-125.4
X149.0Y-126.8
X149.0Y-126.1
X149.05Y-137.2
X149.075Y-144.8
X149.1Y-121.3
X149.1Y-128.5
X149.2Y-150.7
X149.275Y-141.9
X149.275Y-147.3
X149.3Y-149.0
X149.4Y-156.0
X149.7Y-123.8
X149.9Y-114.25
X150.0Y-122.8
X150.3Y-139.0
X150.3Y-137.7
X150.4Y-135.45
X150.4Y-143.1
X150.4Y-145.6
X150.4Y-157.3
X150.45Y-158.95
X150.5Y-161.8
X150.6Y-120.3
X150.7Y-124.6
X150.7Y-136.4
X150.887Y-139.812
X151.0Y-95.8
X151.0Y-96.6
X151.0Y-97.5
X151.0Y-98.5
X151.0Y-99.5
X151.0Y-102.5
X151.0Y-103.3
X151.0Y-104.1
X151.0Y-104.9
X151.0Y-129.85
X151.08Y-114.41
X151.1Y-109.6
X151.103Y-108.78
X151.175Y-156.684
X151.2Y-106.7
X151.2Y-122.8
X151.25Y-127.85
X151.3Y-130.8
X151.3Y-131.75
X151.3Y-155.3
X151.4Y-123.9
X151.5Y-147.0
X151.55Y-126.4
X151.7Y-109.6
X151.7Y-141.45
X151.7Y-144.1
X151.7Y-108.8
X151.8Y-120.3
X151.8Y-129.9
X151.817Y-114.419
X152.0Y-102.5
X152.0Y-103.3
X152.0Y-104.1
X152.0Y-104.9
X152.1Y-95.8
X152.1Y-96.6
X152.1Y-97.5
X152.1Y-98.5
X152.1Y-99.5
X152.1Y-106.7
X152.2Y-123.0
X152.3Y-108.8
X152.3Y-109.6
X152.3Y-128.7
X152.6Y-116.8
X152.75Y-125.6
X152.9Y-121.3
X152.9Y-140.25
X152.95Y-135.3
X153.0Y-102.5
X153.0Y-103.3
X153.0Y-104.1
X153.0Y-104.9
X153.0Y-106.7
X153.0Y-133.5
X153.0Y-136.8
X153.0Y-138.1
X153.0Y-150.15
X153.1Y-101.616
X153.25Y-129.6
X153.3Y-95.8
X153.3Y-96.6
X153.3Y-97.5
X153.3Y-98.5
X153.3Y-99.5
X153.6Y-114.0
X153.6Y-115.3
X153.7Y-116.6
X153.75Y-146.7
X153.9Y-103.3
X153.9Y-104.1
X153.9Y-104.9
X153.9Y-106.7
X153.9Y-156.8
X154.15Y-132.545
X154.35Y-162.375
X154.4Y-120.2
X154.4Y-143.45
X154.5Y-95.8
X154.5Y-96.6
X154.5Y-97.5
X154.5Y-98.5
X154.5Y-99.5
X154.5Y-101.9
X154.6Y-109.3
X154.8Y-106.7
X154.9Y-117.9
X154.9Y-122.2
X155.0Y-103.3
X155.0Y-104.1
X155.0Y-104.9
X155.0Y-130.1
X155.085Y-112.63
X155.2Y-145.5
X155.25Y-148.2
X155.7Y-95.8
X155.7Y-96.6
X155.7Y-97.5
X155.7Y-98.5
X155.7Y-99.5
X155.7Y-100.5
X155.7Y-106.7
X155.7Y-154.0
X155.95Y-125.6
X156.0Y-102.5
X156.0Y-103.3
X156.0Y-104.1
X156.0Y-104.9
X156.1Y-112.63
X156.1Y-127.9
X156.1Y-129.1
X156.1Y-132.545
X156.4Y-144.7
X156.4Y-148.62
X156.5Y-109.3
X156.7Y-117.95
X156.7Y-120.0
X156.9Y-95.8
X156.9Y-96.6
X156.9Y-97.5
X156.9Y-98.5
X156.9Y-99.5
X156.9Y-100.5
X157.0Y-102.5
X157.0Y-103.3
X157.0Y-104.1
X157.0Y-104.9
X157.25Y-155.625
X157.3Y-150.3
X157.3Y-152.075
X157.7Y-113.5
X157.7Y-114.6
X157.7Y-115.7
X157.7Y-143.5
X157.812Y-130.887
X157.9Y-95.8
X157.9Y-96.6
X157.9Y-97.5
X157.9Y-98.5
X157.9Y-99.5
X157.9Y-100.5
X157.9Y-102.5
X157.9Y-103.3
X157.9Y-104.1
X157.9Y-104.9
X157.9Y-109.3
X158.0Y-132.545
X158.1Y-117.9
X158.3Y-165.5
X158.7Y-113.5
X158.7Y-114.6
X158.7Y-115.7
X158.7Y-163.4
X158.8Y-143.5
X159.1Y-122.9
X159.2Y-151.8
X159.262Y-133.462
X159.3Y-94.973
X159.5Y-157.15
X159.5Y-158.95
X159.7Y-116.6
X159.8Y-115.7
X159.8Y-166.9
X159.8Y-113.5
X159.9Y-129.1
X160.0Y-130.9
X160.0Y-145.6
X160.3Y-125.8
X160.4Y-124.0
X160.5Y-120.7
X160.9Y-89.2
X160.9Y-90.2
X160.9Y-91.3
X160.9Y-148.2
X161.2Y-143.3
X161.3Y-113.4
X161.3Y-115.6
X161.3Y-164.4
X161.37Y-134.345
X161.6Y-132.6
X161.7Y-89.2
X161.7Y-90.2
X161.7Y-91.3
X161.9Y-117.2
X162.0Y-158.9
X162.2Y-119.7
X162.3Y-114.6
X162.3Y-113.4
X162.3Y-115.6
X162.5Y-89.2
X162.5Y-90.2
X162.5Y-91.3
X163.2Y-114.6
X163.2Y-113.4
X163.2Y-115.6
X163.3Y-89.2
X163.3Y-90.2
X163.3Y-91.3
X163.375Y-143.9
X163.4Y-159.65
X163.45Y-157.25
X163.5Y-162.35
X163.7Y-140.4
X163.7Y-142.3
X164.0Y-120.8
X164.1Y-89.2
X164.1Y-90.2
X164.1Y-91.3
X164.1Y-117.1
X164.2Y-108.967
X164.4Y-141.3
X164.6Y-149.9
X165.0Y-89.2
X165.0Y-90.2
X165.0Y-91.3
X165.1Y-142.3
X165.175Y-140.4
X165.3Y-117.5
X165.375Y-143.9
X165.4Y-115.2
X165.5Y-132.6
X165.505Y-165.405
X165.8Y-89.2
X165.8Y-90.2
X165.8Y-91.3
X166.3Y-152.25
X166.6Y-142.3
X167.25Y-125.8
X167.3Y-131.6
X167.475Y-143.9
X167.5Y-102.9
X167.5Y-103.6
X167.5Y-104.3
X167.9Y-113.75
X167.9Y-142.3
X167.9Y-149.9
X167.95Y-117.3
X168.0Y-122.2
X168.3Y-103.3
X168.3Y-104.1
X168.3Y-104.8
X168.4Y-95.5
X168.4Y-96.2
X168.4Y-96.9
X168.4Y-128.0
X168.4Y-130.1
X168.4Y-133.1
X168.4Y-135.4
X169.198Y-84.8
X169.198Y-85.602
X169.198Y-103.7
X169.198Y-104.5
T3
X120.4Y-98.9
X120.4Y-100.1
X120.4Y-101.4
X120.4Y-102.7
X120.4Y-104.0
X125.4Y-98.9
X125.4Y-100.1
X125.4Y-101.4
X125.4Y-102.7
X125.4Y-104.0
X140.8Y-98.9
X140.8Y-100.1
X140.8Y-101.4
X140.8Y-102.7
X140.8Y-104.0
X145.8Y-98.9
X145.8Y-100.1
X145.8Y-101.4
X145.8Y-102.7
X145.8Y-104.0
X160.0Y-98.8
X160.0Y-100.0
X160.0Y-101.3
X160.0Y-102.6
X160.0Y-103.9
X165.0Y-98.8
X165.0Y-100.0
X165.0Y-101.3
X165.0Y-102.6
X165.0Y-103.9
T4
X165.7Y-157.25
X165.7Y-158.55
X165.7Y-159.85
X166.7Y-157.9
X166.7Y-159.2
T5
X129.46Y-166.8
X132.0Y-166.8
X134.0Y-166.8
X134.54Y-166.8
X158.3Y-160.75
X160.3Y-160.75
X146.9Y-166.8
X148.9Y-166.8
X150.9Y-166.8
X152.9Y-166.8
X154.9Y-166.8
X156.9Y-166.8
X112.7Y-166.8
X114.7Y-166.8
X116.7Y-166.8
X118.7Y-166.8
X120.7Y-166.8
X122.7Y-166.8
X124.7Y-166.8
X130.0Y-166.8
X161.8Y-166.8
X163.8Y-166.8
T6
X113.837Y-76.1
X118.837Y-76.1
X132.237Y-76.087
X137.237Y-76.087
X150.637Y-76.0
X155.637Y-76.0
X112.0Y-137.5
X112.0Y-139.5
X112.0Y-141.5
X112.0Y-143.5
X112.0Y-145.5
X114.0Y-137.5
X114.0Y-139.5
X114.0Y-141.5
X114.0Y-143.5
X114.0Y-145.5
T7
X112.5Y-148.84
X112.5Y-151.38
X112.5Y-153.92
X112.5Y-156.46
X112.5Y-159.0
X167.7Y-164.9
X167.7Y-167.44
T8
X160.175Y-96.4
X162.715Y-96.4
X165.255Y-96.4
X140.795Y-96.3
X143.335Y-96.3
X145.875Y-96.3
X137.8Y-106.6
X140.34Y-106.6
X142.88Y-106.6
X117.52Y-106.6
X120.06Y-106.6
X122.6Y-106.6
X120.675Y-96.4
X123.215Y-96.4
X125.755Y-96.4
X157.2Y-106.6
X159.74Y-106.6
X162.28Y-106.6
T9
X143.275Y-101.5
X147.6Y-71.7
X122.9Y-101.45
X132.7Y-71.7
X162.475Y-101.4
T10
X116.8Y-72.6
X163.5Y-72.6
X163.5Y-129.7
X140.125Y-72.6
X116.8Y-129.7
X140.1Y-165.45
T2
X165.42Y-154.975G85X166.42Y-154.975
G05
X165.42Y-162.125G85X166.42Y-162.125
G05
T0
M30
